<?xml version="1.0" standalone="no"?>
<!DOCTYPE svg PUBLIC "-//W3C//DTD SVG 20010904//EN"
 "http://www.w3.org/TR/2001/REC-SVG-20010904/DTD/svg10.dtd">
<svg version="1.0" xmlns="http://www.w3.org/2000/svg"
 width="512.000000pt" height="512.000000pt" viewBox="0 0 512.000000 512.000000"
 preserveAspectRatio="xMidYMid meet">

<g transform="translate(0.000000,512.000000) scale(0.100000,-0.100000)"
fill="#000000" stroke="none">
<path d="M2380 5114 c-19 -2 -78 -9 -130 -14 -330 -36 -695 -160 -990 -336
-375 -224 -680 -529 -904 -904 -175 -292 -291 -632 -338 -990 -16 -123 -16
-497 0 -620 82 -623 356 -1150 820 -1581 256 -239 575 -425 922 -539 274 -91
491 -124 800 -124 228 0 329 9 530 50 689 141 1304 583 1674 1204 175 292 291
632 338 990 16 123 16 497 0 620 -47 358 -163 698 -338 990 -224 375 -529 680
-904 904 -289 173 -634 291 -980 336 -88 12 -438 21 -500 14z m375 -204 c130
-12 259 -34 370 -61 841 -206 1507 -866 1720 -1703 54 -214 69 -342 69 -586 0
-244 -15 -372 -69 -586 -211 -830 -864 -1482 -1700 -1699 -592 -153 -1256 -59
-1781 252 -544 323 -935 843 -1089 1447 -54 214 -69 342 -69 586 0 244 15 372
69 586 213 837 879 1496 1720 1703 249 62 520 83 760 61z"/>
<path d="M2440 4484 c-413 -38 -746 -165 -1062 -406 -159 -120 -357 -342 -461
-514 -267 -443 -347 -979 -222 -1475 87 -340 250 -630 501 -885 291 -296 672
-486 1097 -548 140 -21 394 -21 534 0 566 82 1051 394 1358 874 62 97 165 312
199 417 68 206 97 390 97 607 -1 211 -17 340 -67 517 -60 216 -187 488 -251
539 -38 30 -88 26 -124 -9 -45 -45 -40 -84 26 -199 146 -259 218 -532 219
-832 1 -291 -51 -513 -180 -775 -196 -397 -534 -699 -959 -856 -302 -112 -670
-130 -1005 -50 -598 143 -1097 638 -1249 1239 -70 275 -70 589 0 864 130 513
519 960 1010 1162 471 193 977 172 1444 -59 72 -36 143 -65 158 -65 44 0 87
49 87 99 0 57 -26 80 -165 150 -189 93 -377 154 -580 185 -104 16 -327 27
-405 20z"/>
<path d="M3781 3954 c-100 -71 -11 -226 97 -170 38 20 52 44 52 91 0 74 -88
121 -149 79z"/>
<path d="M1765 3675 c-195 -43 -327 -222 -312 -422 20 -271 306 -446 555 -342
l54 22 191 -191 192 -192 -194 -194 -194 -195 -38 19 c-20 11 -69 25 -108 31
-125 21 -245 -18 -340 -112 -160 -158 -161 -410 -1 -570 60 -60 130 -96 219
-111 309 -53 560 269 432 556 l-19 43 194 194 194 194 192 -192 192 -192 -17
-38 c-68 -157 -36 -335 81 -452 105 -104 244 -143 386 -106 195 51 324 245
296 444 -37 260 -308 416 -552 317 l-56 -23 -191 191 -191 191 194 194 194
194 52 -22 c105 -45 255 -35 355 23 138 81 220 255 195 411 -37 226 -255 378
-476 331 -204 -43 -337 -218 -322 -425 3 -37 15 -89 28 -119 l23 -54 -194
-194 -194 -194 -191 191 -192 192 18 41 c107 244 -43 523 -305 566 -72 12 -74
12 -150 -5z m179 -211 c17 -9 39 -24 50 -33 39 -35 69 -122 59 -173 l-6 -29
-77 76 c-70 68 -81 75 -117 75 -68 0 -115 -67 -91 -129 5 -15 39 -56 75 -93
74 -75 72 -86 -13 -74 -125 17 -205 152 -160 270 20 51 82 113 123 122 16 3
33 7 38 10 18 6 87 -6 119 -22z m1470 0 c42 -22 65 -43 84 -79 57 -110 15
-237 -93 -286 -40 -19 -125 -26 -125 -11 0 4 19 26 41 47 104 100 124 162 70
216 -23 23 -39 29 -70 29 -37 0 -48 -7 -115 -70 -40 -38 -76 -70 -80 -70 -13
0 -5 87 13 125 21 47 80 102 119 111 15 3 32 7 37 10 18 6 87 -6 119 -22z
m-1530 -1450 c13 -5 1 -22 -52 -79 -38 -39 -72 -84 -76 -99 -10 -42 21 -98 63
-112 53 -17 79 -6 156 68 72 68 73 68 79 42 11 -41 -19 -125 -56 -161 -70 -68
-153 -80 -239 -35 -123 64 -144 229 -41 325 41 40 128 66 166 51z m1530 -20
c42 -22 65 -43 84 -79 40 -78 33 -166 -20 -230 -121 -146 -358 -59 -358 131 0
24 3 44 7 44 3 0 39 -31 79 -70 69 -67 85 -75 139 -71 34 3 75 57 75 97 0 32
-10 46 -76 114 -62 64 -72 79 -57 83 28 8 91 -2 127 -19z"/>
</g>
</svg>
