<?xml version="1.0" encoding="UTF-8"?>
<svg version="1.1" viewBox="0 0 2048 1282" width="1280" height="1280" xmlns="http://www.w3.org/2000/svg">
<path transform="translate(1510,49)" d="m0 0h23l12 3 16 8 8 6 20 20 8 6 7 7 3-1-11-12v-3l5 4 8 10 14 8 13 9 16 12 11 9 11 11 8 7 8 10 8 4 26 8 16 6 25 10 27 12 9 5h2l6-10 5 1 13 8 8 5-6 12-6 10-4 6-4-1-22-12 1-4 4-6v-2l-28-14-32-13-17-6-18-6 2 5 10 14 10 16 11 21 11 26 7 22 7 29 3 23 1 14v33l-1 18 6 17 1 7v11l-3 12-7 14-7 7-7 8-7 6-5 12-8 16-7 12-8 12-10 14-9 10-8 10-22 22-14 11-12 9-15 10-22 12-14 7-26 10-31 9-25 4-18 2h-45l-32-4-25-6-33-11-20-9-24-13-15-10-21-16-13-12-1-1-2 9-2 14v13l9 7-1 3-8-6-1 1-2 20-1 18-1 45-1 1h-5l-1-5v-20l2-46 3-33 3-19 1-10-4-2-12-14-10-12-11-16-9-14-14-27-7-16-8-24-6-22-16-13-14-12-3-2-1 8-8 23-13 30-10 20-8 13-14 21-9 10-9 11-14 14-14 11-11 8-16 9-18 9-3-1 14-8 16-10 17-13 14-12 12-12 9-11 15-20 14-24 8-15 11-26 11-31 2-10-9-9-9-11-5-7v-6l4-4h6l12 13 6 7 12-50 9-31 8-21 10-23 14-28 10-16 8-12 10-13 8-10 9-10 12-13 10-9 13-11 19-13 11-7 23-12 23-11 25-9 32-9 16-3 21-2 26-1h14l19-8zm5 7-16 3-2 1v2l28 5 34 9 11 4-2-4-10-9-17-9-12-2zm-46 18-11 9-10 9-8 8-7 9-10 14-9 17-9 21-7 23-2 10 6-2 23-14 19-9 30-11 25-6 17-3 27-2h34l32 1-8-22-8-18-4-5-23-10-16-6-28-7-26-4-19-2zm-18 0-27 3-24 4-23 6-28 11-25 12-22 14-16 12-14 12-10 9-7 8-9 9-13 17-8 11-17 29-8 17-10 28-6 20-5 30-2 20v29l2 21 3 19 6 5 18 12 24 13 23 12 24 10h4l11-26 12-23 13-22 9-13 8-11 8-10 9-11 9-10 16-17 10-9 1-1-1-13-2-19v-54l1-15-8 6-24 24-13 17-9 12-7 11-8 13-10 19-5 10v3l12 5-1 7-11 24-3 5v2l-30-13-3-2 3-9 8-17 5-10 5 1 6 3h3l14-27 8-14 8-12 13-18 11-13 7-8 11-12 10-9 10-8 3-11 5-22 6-18 7-16 13-22 8-11 9-10 7-8 8-7 3-2v-2zm161 31-2 3 5 8 4 5-7-6-9-4 1 5 7 16 6 17 13 3 30 5 4 1-2-4-8-8-14-11-13-10-3-2-6-12-4-6zm-73 47-30 3-32 8-27 9-19 9-27 16-9 7-2 4-2 21v53l1 17 1 7h3l14-11 13-10 26-17 25-14 23-12 27-11 24-9 29-9 35-9h8l1 2-18 4-35 10-20 7-18 7-24 10-17 8-19 10-14 8-22 14-15 11-18 14-6 5 2 19 5 26 6 24 7 26 6-1 13-4 1 7 11 36-5 1-33 11-3-10-10-32 4-2 10-3-3-10-9-36-6-31-2-12-2-2-21 21-7 8-12 14-10 13-14 20-8 13-12 22-8 16-9 20 1 3 36 12 22 6 30 8 36 7 42 6 36 3 18 1h52l41-3 16-2 3-9 5-32 5-40 4-47v-46l-8-3 7-10 1-4v-27l-2-27-6-46-7-39-6-23-1-2-26-2zm80 4 4 17 6 26 2 2 14-3-2-16h2l3 15 23-3h4l-21 4-23 4 1 14 6 52 2 24 1 30 29 10 32 14 18 10 19 14 10 8h1v-33l-2-25-3-17-9-33-10-26-13-25-13-21-9-11-8-11-7-8-7-3-26-5-3-1-2-3h-3v2l-11-2zm-429 76-8 14-10 24-11 29-8 28-6 26-5 23v6l15 14 7 6h2l-2-22v-39l3-23 5-28 8-28 8-21 3-9zm451 106-1 32-3 1 1 5 1 2-1 26-5 51-4 27-4 19v5l12-1 26-6 18-6 22-9 21-11 5-4 4-8 7-24 6-23 2-15-9-10-13-12-17-11-22-12-27-11-16-5zm-453 99 3 12 9 25 8 17 14 24 8 12 13 16 9 10 2 1 5-18 6-24 7-22 2-9-12-6-28-13-20-10-15-9-9-6zm93 46-5 12-9 31-7 30v6l13 13 22 18 25 16 19 10 23 10 17 6 23 6 31 5 10 1h42l24-3 26-5 21-6 14-7 9-10 9-15 7-15 9-26 6-19 4-18-28 3-17 1h-74l-28-2-41-5-23-4-42-9-28-7-20-6-31-11zm434 11-25 10-26 8-22 6-20 4-3 8-5 21-6 19-10 25-9 17-3 7 5-1 17-9 27-18 13-11 11-9 19-19 9-11 13-17 13-21 4-7v-2z" fill="#479453"/>
<path transform="translate(363,504)" d="m0 0h24l14 3 16 8 12 9 4 4 2-18 4-1 28 2 7 1 1 1v198l-3 16-5 15-10 16-12 13-14 9-11 5-17 6-14 2h-26l-19-3-27-9-8-4-1-4 9-25 2-6 6 1 13 5 21 5h33l13-5 8-5 8-8 7-15 2-11 2-28-14 10-17 9-14 3h-26l-16-4-16-8-10-7-7-6-8-10-7-11-6-14-5-15-2-11v-27l3-15 8-21 9-15 11-12 9-8 11-7 16-6zm11 38-10 2-12 6-9 8-8 14-4 13-2 15 1 17 5 19 6 10 9 10 13 7 10 2h13l14-3 12-7 11-11 6-10 5-19 1-7-1-16-4-15-7-14-7-8-14-9-10-3-7-1z" fill="#7BB726"/>
<path transform="translate(1578,818)" d="m0 0h20l15 3 12 5 10 6 4 3v2l4 2 4 3v-10l1-9h9l29 3 2 3v180l-1 24-4 16-4 10-9 13-11 12-8 6-10 6-17 7-14 3-15 1h-12l-22-2-15-4-21-8-5-3 2-6 6-16 5-11 9 2 15 5 18 3h29l13-4 11-7 8-10 5-12 3-14 1-13v-13h-2l-2 4-11 8-10 6-9 3-11 2h-24l-19-4-17-9-13-10-8-9-9-14-6-14-6-23-1-7v-19l3-16 6-19 9-17 7-9 9-9 11-8 14-7 15-4zm7 38-12 4-10 6-9 9-7 14-3 9-1 7v26l4 15 7 14 8 9 10 6 13 4h17l16-5 11-8 8-9 7-14 3-12v-27l-3-12-7-14-9-10-9-6-14-5-4-1z" fill="#7AB626"/>
<path transform="translate(1510,49)" d="m0 0h23l12 3 16 8 8 6 20 20 8 6 7 7 3-1-11-12v-3l5 4 8 10 14 8 13 9 16 12 11 9 11 11 8 7 8 10 8 4 26 8 16 6 25 10 27 12 9 5h2l6-10 5 1 13 8 8 5-6 12-6 10-4 6-4-1-22-12 1-4 4-6v-2l-28-14-32-13-17-6-18-6 2 5 10 14 10 16 11 21 11 26 7 22 7 29 3 23 1 14v33l-1 18 1 4h-2l-2 11-7 27-6 12-8 9-7 5h-2l3-10 9-32 4-21-1-4-7-8-13-12-17-11-22-12-27-11-19-6v29l-1 3-2 1 1 5 1 2-1 26-5 51-4 27-5 24 2 1h-10l6-39 5-40 4-47v-46l-8-2 5-9 2-2 1-4v-27l-2-27-6-46-7-39-6-23v-2h-11l-15-1h-46l-30 3-32 8-27 9-19 9-27 16-9 7-2 9-1 15v53l1 17 1 7 6-4 16-13 33-22 25-14 23-12 27-11 24-9 29-9 35-9h9v3l-21 6-29 8-23 8-18 7-24 10-17 8-19 10-14 8-22 14-15 11-18 14-5 4 2 19 5 26 6 24 6 22v4l15-5h4l10 33 2 6v4l-14 5-21 7h-3l-4-10-10-32 1-2 14-3-4-10-9-36-6-31-2-12h-2l-19 19-7 8-12 14-10 13-14 20-8 13-12 22-8 16-9 20-6-2 6-16 13-27 10-17 12-19 11-15 8-10 9-11 9-10 16-17 11-10-1-13-2-19v-54l1-14-12 11-18 18-13 17-9 12-7 11-8 13-10 19-6 13 10 3 3 2-1 7-11 24-4 7-5-1-27-12-2-4 11-24 5-10 4-1 11 5 2-6 17-32 10-15 13-18 11-13 7-8 11-12 11-10 9-7 3-11 5-22 6-18 7-16 13-22 8-11 9-10 7-8 9-8 3-3-24 3-28 4-27 7-10 4-2-1 1-1-2-2 9-7 1-4 1-2-2-1 29-8 16-3 21-2 26-1h14l19-8zm5 7-16 3-2 1v2l28 5 34 9 11 4-2-4-10-9-17-9-12-2zm-46 18-11 9-10 9-8 8-7 9-10 14-9 17-9 21-7 23-2 10 6-2 23-14 19-9 30-11 25-6 17-3 27-2h34l32 1-8-22-8-18-4-5-23-10-16-6-28-7-26-4-19-2zm143 31-2 3 5 8 4 5-7-6-9-4 1 5 7 16 6 17 13 3 30 5 4 1-2-4-8-8-14-11-13-10-3-2-6-12-4-6zm7 51 4 17 6 26 2 2 14-3-2-16h2l3 15 23-3h4l-21 4-23 4 1 14 6 52 2 24 1 30 29 10 32 14 18 10 19 14 10 8h1v-33l-2-25-3-17-9-33-10-26-13-25-13-21-9-11-8-11-7-8-7-3-26-5-3-1-2-3h-3v2l-11-2z" fill="#7AB626"/>
<path transform="translate(496,162)" d="m0 0h144l1 4-3 35-2 1-82-1v51l50-1h29v16l-1 17-2 7h-76v56l24-1 66-1v21l-1 22-1 1-47 1h-87l-12-1 1-103v-51l-1-51z" fill="#015F90"/>
<path transform="translate(134,162)" d="m0 0h143l1 4-2 35-1 1-84-1 1 4-1 47 51-1h28l1 1-1 29-1 9-1 1h-75l-1 56 22-1 67-1 1 1-2 36-1 7-45 1h-87l-13-1z" fill="#015F90"/>
<path transform="translate(316,162)" d="m0 0h143v20l-1 19-1 1-84-1v51l50-1h29l1 4-2 35-2 1h-75v56l23-1 66-1v20l-2 24-46 1h-86l-13-1v-181l-1-45z" fill="#015E90"/>
<path transform="translate(30,752)" d="m0 0h69l31 2 12 3 16 7 12 9 9 8 7 11 5 10 3 11 2 19-1 16-2 12-7 17-7 10-9 9-13 9-14 6-11 3-18 2h-40v100l-1 1h-44v-264zm44 40v86h31l16-2 12-4 9-7 5-8 3-12 1-7v-8l-3-15-4-8-7-7-10-5-16-3z" fill="#7BB726"/>
<path transform="translate(781,504)" d="m0 0h24l14 3 16 8 9 7 6 5v-16l1-2 34 2 8 1 1 2v188l-1 1h-37l-2-9-1-10-1-2-12 12-13 8-15 5-14 2h-11l-13-2-18-6-14-9-12-11-10-13-8-15-7-21-2-10v-32l3-14 7-19 6-11 9-12 8-9 14-10 14-7 11-3zm12 38-12 3-11 6-8 8-6 10-5 12-3 17v15l3 17 4 11 7 12 7 7 10 6 7 3 6 1h15l12-4 9-5 10-9 7-10 5-12 3-14v-20l-4-17-8-16-7-8-10-7-9-4-11-2z" fill="#7BB726"/>
<path transform="translate(96,433)" d="m0 0h22l25 4 24 8 6 3-2 9-9 27-7-1-19-6-19-3h-18l-12 3-6 4-4 2-2 5-3 7-1 5v13l4 10 7 8 12 9 19 10 16 8 18 11 12 9 7 7 11 16 4 11 3 16v10l-4 20-5 10-7 10-7 8-10 7-14 8-20 6-19 2h-11l-20-2-25-6-24-10-3-4 6-19 5-14 3-2 11 5 17 6 19 4 9 1h16l15-4 8-5 5-4 5-10 1-4v-15l-4-9-9-10-14-9-25-12-10-6-12-6-13-10-11-11-7-11-4-10-3-13v-23l4-16 8-15 9-10 13-10 12-6 9-3z" fill="#7BB726"/>
<path transform="translate(421,818)" d="m0 0h22l16 3 15 5 14 8 13 11 10 11 8 13 8 18 4 16 1 11v13l-2 17-4 13-7 16-8 12-11 12-8 7-13 8-14 6-12 3-7 1h-29l-16-3-17-7-17-12-11-11-8-11-8-16-5-16-2-11v-29l3-14 6-18 7-12 10-13 9-9 16-11 13-6 16-4zm3 38-15 5-11 8-8 8-8 16-3 8-2 21 2 17 5 14 7 12 5 5 10 8 12 5 7 1h15l12-3 12-7 6-5 7-10 5-11 4-16 1-7-1-16-4-16-8-16-7-8-11-7-12-5-4-1z" fill="#7AB626"/>
<path transform="translate(817,818)" d="m0 0h21l16 3 12 4 11 7 11 9 7 8 8 14 6 12 5 20 2 14 1 18-1 1h-137l5 20 7 14 9 10 9 6 13 4 7 1h22l20-3 22-7h2l5 18 3 15-1 4-12 5-19 5-15 2h-35l-17-3-18-7-18-13-9-9-10-15-6-12-5-18-2-12v-25l3-17 5-17 10-18 7-9 10-10 11-8 13-6 14-4zm3 38-13 4-9 6-8 8-6 12-3 9 1 3h90l-1-9-5-13-6-8-9-7-11-4-4-1z" fill="#7BB726"/>
<path transform="translate(601,504)" d="m0 0h23l12 3 12 6 10 9 7 8 7 14 4 18 1 7v133l-1 1h-42l-1-125-2-13-5-12-8-7-10-3h-10l-12 3-10 6-8 8-7 14-5 18-1 8-1 102-1 1h-42v-191l31-3h6l4 22 12-12 14-9 15-5z" fill="#7BB726"/>
<path transform="translate(1397,818)" d="m0 0h19l14 3 14 7 10 9 8 11 5 12 4 17v140h-43l-1-126-2-14-6-12-9-6-5-2h-14l-12 4-8 5-9 9-7 14-4 16-1 8-1 33v70l-1 1h-42l-1-189 2-2 27-3h9l3 20v2l8-7 7-7 12-7 12-4z" fill="#7AB626"/>
<path transform="translate(642,818)" d="m0 0h26l24 4 20 6 8 3-1 9-9 26-3 1-16-5-23-5h-22l-16 5-11 7-7 6-8 14-4 11-2 12v17l3 15 6 14 7 9 8 7 14 7 10 2h21l18-3 23-7 2 1 9 29 1 6-4 3-23 7-19 3h-35l-13-2-18-6-18-11-13-12-11-15-7-15-5-17-2-14v-19l2-16 7-21 7-13 12-15 11-9 14-9 12-5 17-4z" fill="#7BB726"/>
<path transform="translate(1131,818)" d="m0 0h22l20 4 10 3 11 4-1 10-8 20-1 5-7-1-21-6-15-1-8 2-8 5-3 7v8l4 8 12 9 12 6 23 13 10 8 7 7 8 13 3 14v15l-2 11-4 9-6 9-10 9-10 6-13 5-11 2h-30l-17-3-20-7-7-5 2-9 6-22 2-4 4 1 19 7 14 3 17 1 10-3 6-4 4-8v-10l-3-6-7-7-27-13-14-8-11-9-7-8-8-16-2-9v-16l3-11 7-13 11-12 14-8 13-4z" fill="#7BB726"/>
<path transform="translate(989,818)" d="m0 0h22l17 3 16 5 9 4-2 9-9 25-2 1-11-4-14-4-16-1-10 3-6 5-3 8 1 8 6 9 26 15 15 8 11 8 5 5 7 8 6 13 3 12v13l-5 16-5 9-9 10-10 7-13 6-15 3h-30l-17-3-19-7-7-4 1-8 7-25 1-3 10 3 17 6 20 3h7l10-3 7-5 4-8v-8l-4-7-7-7-15-8-23-11-11-9-10-10-4-7-5-15v-21l4-13 3-6 9-10 7-7 14-7z" fill="#7BB726"/>
<path transform="translate(66,161)" d="m0 0h19v155l1 73-32 1h-28v-195l-1-32 1-1z" fill="#015F90"/>
<path transform="translate(1481,59)" d="m0 0 39 6 35 9 9 3 3 7v3h2l4 9-10-3-13-5-28-7-26-4-19-2h-8l-11 9-10 9-7 7-7 9-10 14-9 17-9 21-7 23-3 10 7-4 2 1-4 5-1 2h-3l1 4-3 3-2 9-1 15v53l1 17 1 7 6-4 16-13 33-22 25-14 23-12 27-11 24-9 29-9 35-9h9v3l-21 6-29 8-23 8-18 7-24 10-17 8-19 10-14 8-22 14-15 11-18 14-5 4 2 19 5 26 6 24 6 22v4l15-5h4l10 33 2 6v4l-14 5-21 7h-3l-4-10-10-32 1-2 14-3-4-10-9-36-6-31-2-12h-2l-19 19-7 8-12 14-10 13-14 20-8 13-12 22-8 16-9 20-6-2 6-16 13-27 10-17 12-19 11-15 8-10 9-11 9-10 16-17 11-10-1-13-2-19v-54l1-14-12 11-18 18-13 17-9 12-7 11-8 13-10 19-6 13 10 3 3 2-1 7-11 24-4 7-5-1-27-12-2-4 11-24 5-10 4-1 11 5 2-6 17-32 10-15 13-18 11-13 7-8 11-12 11-10 9-7 3-11 5-22 6-18 7-16 13-22 8-11 9-10 7-8 9-8 3-3-24 3-28 4-27 7-10 4-2-1 1-1-2-2 9-7 1-4 1-2-2-1 29-8 16-3 21-2 26-1h14z" fill="#7CB729"/>
<path transform="translate(972,419)" d="m0 0 2 4v225l1 12 4 7 10 3-2 19-2 18h-14l-16-4-11-7-7-8-4-9-1-5-1-15v-227l1-3 18-5z" fill="#7BB726"/>
<path transform="translate(315,818)" d="m0 0h9l1 1v36l-1 1-16 3-13 5-10 8-5 6-8 16-5 17-1 6-1 43v56l-1 1h-42v-190l10-2 18-2h9l4 24 4-2 7-8 7-7 16-8z" fill="#7BB726"/>
<path transform="translate(1736,482)" d="m0 0h2l-1 5-9 19-15 24-12 16-7 8-9 11-22 22-14 11-12 9-15 10-22 12-14 7-26 10-31 9-25 4-18 2h-45l-32-4-25-6-33-11-20-9-24-13-15-10-21-16-13-12v-8l2-8 4 1 9 9 22 18 25 16 19 10 23 10 17 6 23 6 31 5 10 1h42l24-3 26-5 21-6 14-7 8-9 9-15 7-15 9-26 6-19 4-16 3-2h5l-2 12-5 19-5 16-10 25-9 17-3 6 6-2 18-10 24-16 13-11 11-9 18-18 9-11 13-17 13-21 4-7v-3z" fill="#489552"/>
<path transform="translate(1225,823)" d="m0 0h42l1 1v193h-43z" fill="#7BB726"/>
<path transform="translate(214,509)" d="m0 0 41 1v193h-42l-1-2v-191z" fill="#7BB726"/>
<path transform="translate(1763,401)" d="m0 0 3 1 4 12 1 7v11l-3 12-7 14-7 7-7 8-7 6-1 3-16 8-12 7-24 9-23 7-22 6-26 5-18 2-29 2h-74l-28-2-41-5-23-4-42-9-28-7-20-6-31-11-2-8 5-2 1-2 9 1 31 10 44 12 35 7 48 7 36 3 18 1h52l41-3 16-2 2-2h9l28-6 21-6 27-11 21-11 5-5 11-8 9-11 5-12z" fill="#03608E"/>
<path transform="translate(1370,75)" d="m0 0h5l-2 7-7 6v3l-4 3-15 6-23 11-22 14-16 12-14 12-9 8-7 8-9 9-13 17-8 11-17 29-8 17-10 28-6 20-5 30-2 20v29l2 21 1 7v10l-6-3-9-8-1-2-2-20v-39l3-23 5-28 8-28 8-21 2-6-8 16-8 19-11 29-8 28-6 26-5 23-5-2v-8l10-42 9-31 8-21 10-23 14-28 10-16 8-12 10-13 8-10 9-10 12-13 10-9 13-11 19-13 11-7 23-12 23-11z" fill="#04618D"/>
<path transform="translate(1223,1112)" d="m0 0h18l13 4 8 5 8 8 6 11 4 10 2 10v11l-81 1-9-1 3 18 6 12 5 6 13 8 6 2h22l16-4 3-2h3l2 8v6l-18 5-8 1h-19l-15-4-9-5-9-8-7-10-5-11-3-13v-17l4-16 5-10 9-11 8-7 11-5zm-1 14-12 5-8 7-8 16-1 5 25 1h15l1 5h3v-5l31-1-3-12-5-9-5-5-8-5-6-2z" fill="#04618E"/>
<path transform="translate(927,1112)" d="m0 0h19l13 4 10 6 10 9 7 11 6 15 1 4v21l-4 13-6 12-8 10-10 7-15 6-6 1h-17l-12-3-12-6-10-9-7-11-6-13-2-10v-14l3-13 8-16 9-10 7-6 13-6zm-1 14-13 5-12 11-6 12-2 8v20l4 13 8 11 13 9 9 3h18l9-3 11-8 7-8 5-10 2-10v-15l-3-12-6-11-7-7-14-7-4-1z" fill="#03608E"/>
<path transform="translate(805,1067)" d="m0 0h25l16 4 7 3 1 3-4 10-6-1-10-3-7-1h-21l-9 4-7 6-3 7-1 5v9l4 10 1 3 4 2 10 7 19 9 19 11 8 7 5 9 3 7 1 5v12l-3 10-6 10-9 8-14 6-10 2h-19l-17-4-15-6-1-1 1-7 3-6 6 2 15 6 11 2h15l10-3 12-8 4-6 2-9-1-10-4-8-7-7-14-8-20-9-11-7-10-9-5-10-2-8v-13l3-12 7-10 8-7 12-5z" fill="#03608E"/>
<path transform="translate(1375,1115)" d="m0 0h15l14 41 13 37 6 21 2-3 4-14 12-36 11-35 4-10 1-1h14l-11 36-12 35-16 50-9 26-5 9-8 7-9 4h-18l-10-5 2-10 5-1 7 2h11l8-5 6-11 5-16 1-6-4-4-11-30-17-49-7-19-4-11z" fill="#03608E"/>
<path transform="translate(1059,1112)" d="m0 0h23l17 4 9 4-3 11-4 1-8-3-11-2h-23l-12 4-9 7-5 6-6 13-2 15 1 11 5 13 4 6 10 9 10 5 4 1h21l12-3 11-4 4 9 1 4-10 4-11 3-7 1h-20l-13-3-12-6-10-9-7-11-6-16-1-5v-20l6-18 7-11 5-6 10-7 11-5z" fill="#04618E"/>
<path transform="translate(1324,1081)" d="m0 0h3v34h28v12h-28l1 73 2 8 4 6 6 3h22l2 8v4l-9 2h-16l-11-4-9-8-5-11-1-9v-71l-16-1v-12h16v-28l3-3z" fill="#04618E"/>
<path transform="translate(1481,59)" d="m0 0 39 6 35 9 9 3 3 7v3h2l4 9-10-3-13-5-28-7-26-4-19-2h-26l-27 3-24 4-23 6-10 4-2-1 1-1-2-2 9-7 1-4 1-2-2-1 29-8 16-3 21-2 26-1h14z" fill="#489552"/>
<path transform="translate(1736,482)" d="m0 0h2l-1 5-9 19-15 24-12 16-7 8-9 11-22 22-14 11-12 9-15 10-14 8-1-2-5-1 2-7 5-8 19-12 12-9 14-12 8-7 15-15 9-11 13-17 13-21 4-7v-3z" fill="#7AB626"/>
<path transform="translate(1382,206)" d="m0 0h2l-1 9-10 9-19 19-13 17-9 12-7 11-8 13-10 19-6 13 10 3 3 2-1 7-11 24-4 7-5-1-27-12-2-4 11-24 5-10 4-1 11 5 2-6 17-32 10-15 13-18 11-13 7-8 11-12 11-10z" fill="#04618D"/>
<path transform="translate(1501,289)" d="m0 0 23 1 9 1v10l12 2 38 5 41 8 2 1-1 4-5 10-12-2-31-6-43-6-2-1-1 11-21-1-11-1v-15z" fill="#03608E"/>
<path transform="translate(1171,426)" d="m0 0 11 7 7 6 10 30 10 22 14 24 8 12 13 16 9 10-1 10-2 8-4-2-12-14-10-12-11-16-9-14-14-27-7-16-8-24-4-15z" fill="#03608E"/>
<path transform="translate(1240,739)" d="m0 0h13l10 5 8 9 2 5v14l-5 8-8 7-7 3h-13l-10-5-6-7-3-6-1-8 2-10 6-8 9-6z" fill="#7BB726"/>
<path transform="translate(232,425)" d="m0 0 12 2 7 4 7 8 3 9-1 10-7 11-9 6-4 1h-13l-7-3-6-5-5-9-1-5v-8l3-9 5-5 8-5z" fill="#7BB726"/>
<path transform="translate(1260,564)" d="m0 0 4 1 9 9 22 18 25 16 19 10 23 10 14 5 1 2-5 1h-3-4v3l-5 3-6-1-21-9-26-14-15-10-21-16-13-12v-8z" fill="#04618D"/>
<path transform="translate(1642,322)" d="m0 0 11 3 17 6 32 14 18 10 19 14 10 8v9l-2 11-7-6-14-13-17-11-22-12-27-11-16-5-2-2z" fill="#03608E"/>
<path transform="translate(1134,1115)" d="m0 0h14v112l-1 1h-13z" fill="#0A6589"/>
<path transform="translate(1274,481)" d="m0 0 1 2 6 1-9 27-10 40-1 11 1 2h-2l-2 15-2 2-3 21v13l9 7-1 3-8-6-1 1-2 20-1 18-1 45-1 1h-5l-1-5v-20l2-46 3-33 3-19 1-14 3-13 5-18 6-24 7-22z" fill="#79B627"/>
<path transform="translate(1132,394)" d="m0 0 4 4-1 7-8 23-13 30-10 20-8 13-14 21-9 10-9 11-14 14-14 11-11 8-16 9-18 9-3-1 14-8 16-10 17-13 14-12 12-12 9-11 15-20 14-24 8-15 11-26 11-31z" fill="#126B87"/>
<path transform="translate(1358,581)" d="m0 0 6 1 19 8 20 8 2 2-1 6-6 15-11-3-26-11-10-5 1-5 5-13z" fill="#03608F"/>
<path transform="translate(1306,140)" d="m0 0 5 1 8 7 3 2-1 5-13 16-7 8-9 11h-3l-10-9-4-3 1-3 5-5 10-12 8-10z" fill="#7BB726"/>
<path transform="translate(1775,451)" d="m0 0h14l15 1-2 31-1 2-29-2v-10l2-21z" fill="#03608F"/>
<path transform="translate(1112,354)" d="m0 0h6l12 13 6 7 2-3 1 3 3 2 2 7 2 3v3l2 2v5l2 6h2v4h-2l-1 2-11-10-4-1-3-1v-5l-9-9-9-11-5-7v-6z" fill="#79B527"/>
<path transform="translate(1121,233)" d="m0 0 6 2 18 8v3l-11 23-3 1-21-9-1-4 5-10z" fill="#03608E"/>
<path transform="translate(1489,153)" d="m0 0h9v3l-2 3-32 9-16 6-17 8-27 16-4 3h-3v-3h3l2-5 5-5 18-11 19-9 30-11z" fill="#106A83"/>
<path transform="translate(1543,146)" d="m0 0h34l23 1 7 1 2 6-24-1h-46l-30 3-9 2-4-1 2-3-4-1v-1l22-4z" fill="#489552"/>
<path transform="translate(1616,523)" d="m0 0h5l-2 12-5 19-5 16-10 25-3 6-4-5-2-1 8-20 10-30 5-20z" fill="#7AB626"/>
<path transform="translate(1250,406)" d="m0 0 7 1 11 5-1 5-7 14-7-1-10-5 1-6z" fill="#05618D"/>
<path transform="translate(1685,374)" d="m0 0 17 8-1 4-8 15-9-3-8-4 2-6 6-13z" fill="#06638B"/>
<path transform="translate(1067,521)" d="m0 0v3h1l3 1-15 16-12 11-13 10-18 11-22 11-3-1 14-8 16-10 17-13 14-12 12-12z" fill="#589E5F"/>
<path transform="translate(1536,103)" d="m0 0 4 1 7 16v2l-15 6-3-1-6-13-1-3 8-5z" fill="#07638B"/>
<path transform="translate(1136,1067)" d="m0 0h10l5 5 1 5-3 5-5 4-8-1-4-4-1-7 3-5z" fill="#05618D"/>
<path transform="translate(1626,151)" d="m0 0 17 2 17 3 4 5 5 3v1l-11-1-18-4-2-3-3-1v2l-11-1v-3z" fill="#4D984E"/>
<path transform="translate(1521,1112)" d="m0 0 5 1 3 22h-4l-3-12-3 8-1 4-5 1-1-5 4-7 4-11z" fill="#0D6786"/>
<path transform="translate(1142,215)" d="m0 0 6 2-1 5-6 10-4 3-4-2 1-5 6-11z" fill="#08648A"/>
<path transform="translate(1485,1112)" d="m0 0h17l1 3-8 1v19h-4l-1-18-6-3z" fill="#126C81"/>
<path transform="translate(1171,169)" d="m0 0 7 1-4 8-6 9h-4l-2-2 1-6 5-6z" fill="#07648B"/>
<path transform="translate(1187,146)" d="m0 0 6 1v4l-10 13-2 1-4-4 5-9z" fill="#08648A"/>
<path transform="translate(1157,191)" d="m0 0 5 2-1 5-8 13-5-2-1-3 8-13z" fill="#096589"/>
<path transform="translate(1643,182)" d="m0 0h2l3 9v6l7-2 16-2h7l-3 2-21 4-13 2 1-3h3l-2-9z" fill="#99C757"/>
<path transform="translate(1264,64)" d="m0 0 4 2-1 5-10 9-3 1-4-3 2-4z" fill="#106A83"/>
<path transform="translate(1205,124)" d="m0 0 4 1 1 4-8 10-2 3-5-1-1-4 8-10z" fill="#07638B"/>
<path transform="translate(1505,1112)" d="m0 0 5 1 2 6v10l-2 1-2-6-2 11-3 1v-12z" fill="#0D6886"/>
<path transform="translate(1223,103)" d="m0 0 5 1-1 5-8 10-4 1-3-2 2-5z" fill="#0C6787"/>
<path transform="translate(1243,83)" d="m0 0 4 2-1 5-10 10-5-1v-4l7-8z" fill="#0B6688"/>
<path transform="translate(1407)" d="m0 0h10l1 6-8 2h-11l-1-4 5-3z" fill="#FDFDFD"/>
<path transform="translate(1779,512)" d="m0 0h6l1 3-4 14-5 1-2-4 3-13z" fill="#096589"/>
<path transform="translate(1426)" d="m0 0h16l3 3v4h-17l-2-1z" fill="#FBFCFB"/>
<path transform="translate(1763,558)" d="m0 0h5l1 4-6 11-2 2-5-1-1-3z" fill="#0B6687"/>
<path transform="translate(1333,20)" d="m0 0h4v6l-14 7-4-1-1-4z" fill="#579D5B"/>
<path transform="translate(1750,579)" d="m0 0 5 1 1 3-7 11-2 2-5-1v-4l7-10z" fill="#0C6787"/>
<path transform="translate(1309,33)" d="m0 0 4 1v4l-14 9-3-1-1-5 10-6z" fill="#4C9757"/>
<path transform="translate(1286,48)" d="m0 0 4 2-1 4-10 7-4 2-3-3 2-4 10-7z" fill="#156D82"/>
<path transform="translate(1508,17)" d="m0 0 12 4 4 2 1 5-3 1-13-5-3-2 1-4z" fill="#F2F7EC"/>
<path transform="translate(1681,647)" d="m0 0 3 1 1 4-4 4-10 5h-2l-1-5 11-8z" fill="#0D6886"/>
<path transform="translate(1773,535)" d="m0 0 5 1-1 7-4 9-4 1-2-1 1-5 4-11z" fill="#096589"/>
<path transform="translate(1357,11)" d="m0 0h6l1 4-15 6h-4l-1-4 1-2z" fill="#8ABE4D"/>
<path transform="translate(1784,488)" d="m0 0 5 1-1 13-1 4h-6l1-13z" fill="#096589"/>
<path transform="translate(1565,694)" d="m0 0 4 1v5l-14 3-4-1v-5z" fill="#19707B"/>
<path transform="translate(1637,671)" d="m0 0h3l1 5-4 3-8 3h-5l-1-4z" fill="#106A83"/>
<path transform="translate(1719,617)" d="m0 0 4 2-1 5-8 7-4 1-1-1v-5l7-7z" fill="#0B6688"/>
<path transform="translate(1580,385)" d="m0 0h4l1 4-11 11-5-1 1-4z" fill="#9DC95F"/>
<path transform="translate(1702,633)" d="m0 0 2 1v5l-11 8-4-1v-4l9-7z" fill="#08648B"/>
<path transform="translate(1402,692)" d="m0 0 16 3 1 1v5l-9-1-9-3z" fill="#599F5A"/>
<path transform="translate(1540,422)" d="m0 0 4 1-1 5-5 4-8 5-2-1 1-5z" fill="#90C248"/>
<path transform="translate(1454,4)" d="m0 0h8l10 2 1 3-1 2-13-1-6-2z" fill="#FDFDFD"/>
<path transform="translate(1591,688)" d="m0 0 3 1-1 5-11 3h-6l-1-4 8-3z" fill="#146D7F"/>
<path transform="translate(1659,661)" d="m0 0 4 1-1 4-5 3-9 3-2-1 1-5z" fill="#0C6787"/>
<path transform="translate(1562,404)" d="m0 0 3 2-1 4-11 9-4-1 1-4 10-9z" fill="#91C34A"/>
<path transform="translate(1735,600)" d="m0 0h4l1 3-4 6-5 5h-4v-5z" fill="#0C6786"/>
<path transform="translate(1613,681)" d="m0 0h4v5l-10 4-6 1-1-5 10-4z" fill="#0E6985"/>
<path transform="translate(1598,364)" d="m0 0 4 1-1 4-8 11-3 1-2-2 1-4z" fill="#97C655"/>
<path transform="translate(1383,5)" d="m0 0h7l1 3-3 2-11 2h-6l-1-4 1-1z" fill="#EFF5E6"/>
<path transform="translate(1540,699)" d="m0 0h4l1 4-4 2-14 1-1-4 5-2z" fill="#237876"/>
<path transform="translate(1518,439)" d="m0 0h3v5l-10 8-5 1-1-4 7-6zm-4 5m-7 5-1 2h2z" fill="#E1EECF"/>
<path transform="translate(1482,9)" d="m0 0 16 4 1 4-5 1-12-3-1-5z" fill="#A8CF71"/>
<path transform="translate(1503,702)" d="m0 0h15l1 4-1 1-15 1-2-1v-4z" fill="#317F8F"/>
<path transform="translate(1476,703)" d="m0 0h17l1 4-1 1h-16l-2-4z" fill="#2B7E71"/>
<path transform="translate(1451,701)" d="m0 0 16 1 2 1v4h-13l-5-1z" fill="#378578"/>
<path transform="translate(1377,686)" d="m0 0 12 2 6 2v4l-10-1-8-2z" fill="#5A9F5E"/>
<path transform="translate(1331,668)" d="m0 0 5 1 10 4 1 5-2 1-13-6z" fill="#5EA34E"/>
<path transform="translate(1426,698)" d="m0 0 13 1 5 2-1 4-16-2z" fill="#4F9764"/>
<path transform="translate(1354,678)" d="m0 0 13 3 4 4-3 3-14-5z" fill="#5EA163"/>
<path transform="translate(1309,656)" d="m0 0 6 2 8 4 1 6-6-2-10-6z" fill="#69A957"/>
<path transform="translate(1496,455)" d="m0 0 3 1-1 4-11 7-5-1 2-4zm-4 5m-5 2-2 2h3z" fill="#BEDB95"/>
<path transform="translate(1288,643)" d="m0 0 5 2 11 7-1 3-6-1-9-7z" fill="#5A9F59"/>
<path transform="translate(1626,151)" d="m0 0 9 1 3 2-1 2h-2v2l-11-1v-3z" fill="#549D48"/>
<path transform="translate(1533,29)" d="m0 0 6 2 10 6v3l-4-1-13-6z" fill="#91C34B"/>
<path transform="translate(1074,512)" d="m0 0 4 2-2 5-4 5-6 2 2-7z" fill="#23787C"/>
<path transform="translate(1268,628)" d="m0 0 7 4 7 5-1 4-5-2-8-7z" fill="#6FAE44"/>
<path transform="translate(1209,583)" d="m0 0 4 2 9 6 1 3h-4l-11-7z" fill="#D0E5B4"/>
<path transform="translate(1631,322)" d="m0 0 2 3v7l-1 2-8-1 5-9z" fill="#106A83"/>
<path transform="translate(1499,151)" d="m0 0h6v2h4v3l-9 2-4-1 2-3-4-1v-1z" fill="#378761"/>
<path transform="translate(1167,556)" d="m0 0 6 2 8 6v3l-5-1-9-6z" fill="#F4F8EE"/>
<path transform="translate(1230,597)" d="m0 0 9 6 4 4v2l-4-1-10-7z" fill="#8FC147"/>
<path transform="translate(1188,569)" d="m0 0 4 2 10 6v3l-5-1-9-6z" fill="#C3DE9D"/>
<path transform="translate(1614,346)" d="m0 0h2l-2 5-6 8-4-2 2-4 4-4v3zm-7 8 1 2z" fill="#BFDC98"/>
<path transform="translate(1648,238)" d="m0 0h3l-1 17-4-1z" fill="#7BB726"/>
<path transform="translate(1643,182)" d="m0 0h2l3 9v5l-4-1z" fill="#80BA2F"/>
<path transform="translate(1518,439)" d="m0 0h3v5l-10 8-5 1v-2l7-4 4-4z" fill="#8EC148"/>
<path transform="translate(1146,544)" d="m0 0 5 2 9 6v2l-4-1-10-6z" fill="#F9FBF7"/>
<path transform="translate(1403,190)" d="m0 0 2 1-4 5-1 2h-3l1 4-3 2v-8l5-4z" fill="#499551"/>
<path transform="translate(1123,532)" d="m0 0 4 1 11 6v2l-5-1-10-7z" fill="#E7F1DA"/>
<path transform="translate(1647,210)" d="m0 0h3l1 2v8l-3 3z" fill="#94C44F"/>
<path transform="translate(1514,20)" d="m0 0 6 1 4 2 1 5h-4l-3-5-4-2z" fill="#A2CC67"/>
<path transform="translate(1671,193)" d="m0 0h7l-3 2-10 2-4-1 1-2z" fill="#CFE4B1"/>
<path transform="translate(1540,422)" d="m0 0 4 1-5 6-4 1v-4z" fill="#C9E1A8"/>
<path transform="translate(1e3 574)" d="m0 0 2 1-4 4-10 5-3-1 14-8z" fill="#B7D78A"/>
<path transform="translate(1740,457)" d="m0 0v3l-7 5h-2l2-7z" fill="#4A9651"/>
<path transform="translate(1482,9)" d="m0 0 5 1 2 6-7-1-1-5z" fill="#B7D78A"/>
<path transform="translate(1012,569)" d="m0 0 1 2 2 1-10 5-2-1 4-4z" fill="#8ABE4D"/>
<path transform="translate(1486,461)" d="m0 0 2 1h2l3 1-6 4-5-1 2-4z" fill="#B3D583"/>
<path transform="translate(1021,563)" d="m0 0m-2 1 2 1-1 4-3 2h-4v-3z" fill="#73AF59"/>
<path transform="translate(1476,703)" d="m0 0h13v1h-10l1 4-4-1z" fill="#5EA162"/>
<path transform="translate(1580,385)" d="m0 0h4v2h-3v3l-3 1v2h-2l-1-3z" fill="#EEF4E4"/>
<path transform="translate(1472,470)" d="m0 0 4 2-4 4h-2v-2l2-1z" fill="#FDFDFD"/>
<path transform="translate(1644,265)" d="m0 0h3v6l-2 2z" fill="#7BB726"/>
<path transform="translate(1557,43)" d="m0 0h3l3 4-6-1z" fill="#8DC144"/>
<path transform="translate(1612,345)" d="m0 0v3l-2 1z" fill="#D1E5B5"/>
<path transform="translate(1685,191)" d="m0 0h6v1h-6z" fill="#90C249"/>
<path transform="translate(1640,171)" d="m0 0 3 1v2l-3-1z" fill="#7BB726"/>
<path transform="translate(1112,526)" d="m0 0 4 1-2 1z" fill="#8ABE5A"/>
<path transform="translate(1628,317)" d="m0 0 2 2h-3z" fill="#66A938"/>
<path transform="translate(1648,225)" d="m0 0 1 2 2 1h-3z" fill="#E3EFD2"/>
<path transform="translate(1449,484)" d="m0 0 1 3-2-1z" fill="#61A53D"/>
<path transform="translate(1644,280)" d="m0 0 1 3-2-1z" fill="#7BB726"/>
<path transform="translate(1678,192)" d="m0 0 4 1z" fill="#FDFDFD"/>
<path transform="translate(1638,162)" d="m0 0 2 1-1 2z" fill="#7BB726"/>
<path transform="translate(1645,274)" d="m0 0" fill="#7BB726"/>
<path transform="translate(1640,165)" d="m0 0" fill="#7BB726"/>
<path transform="translate(1464,478)" d="m0 0 2 1z" fill="#BCDA91"/>
<path transform="translate(1616,344)" d="m0 0" fill="#BCDA91"/>
<path transform="translate(1613,343)" d="m0 0" fill="#7BB726"/>
<path transform="translate(1639,169)" d="m0 0" fill="#7BB726"/>
<path transform="translate(1638,165)" d="m0 0" fill="#7BB726"/>
<path transform="translate(1570,55)" d="m0 0" fill="#BCDA91"/>
<path transform="translate(987,584)" d="m0 0" fill="#FDFDFD"/>
<path transform="translate(1111,525)" d="m0 0" fill="#7BB726"/>
<path transform="translate(1104,522)" d="m0 0" fill="#7BB726"/>
<path transform="translate(1102,521)" d="m0 0" fill="#FDFDFD"/>
<path transform="translate(1092,516)" d="m0 0" fill="#FDFDFD"/>
<path transform="translate(1469,476)" d="m0 0" fill="#FDFDFD"/>
<path transform="translate(1617,343)" d="m0 0" fill="#FDFDFD"/>
<path transform="translate(1614,342)" d="m0 0" fill="#7BB726"/>
<path transform="translate(1683,192)" d="m0 0" fill="#FDFDFD"/>
<path transform="translate(1641,169)" d="m0 0" fill="#7BB726"/>
<path transform="translate(1563,47)" d="m0 0" fill="#7BB726"/>
</svg>
